<?xml version="1.0" encoding="UTF-8"?>
<svg id="Layer_1" xmlns="http://www.w3.org/2000/svg" xmlns:xlink="http://www.w3.org/1999/xlink" version="1.1" viewBox="0 0 383.79 301.81">
  <!-- Generator: Adobe Illustrator 30.2.1, SVG Export Plug-In . SVG Version: 2.1.1 Build 1)  -->
  <defs>
    <style>
      .st0 {
        fill: none;
      }

      .st1 {
        opacity: .4;
      }

      .st2 {
        fill: #f58500;
      }

      .st3 {
        fill: #161862;
      }

      .st4 {
        clip-path: url(#clippath);
      }
    </style>
    <clipPath id="clippath">
      <rect class="st0" x="136.68" y="54.74" width="110.42" height="66.48"/>
    </clipPath>
  </defs>
  <path class="st3" d="M27.24,228.34c-3,0-4.82,1.29-5.88,4.1-4.15,11.02-8.32,22.03-12.48,33.05-2.3,6.1-4.59,12.22-6.92,18.31-.34.89-.21,1.14.75,1.11,1.84-.06,3.68.01,5.52-.02,2.73-.05,4.72-1.31,5.54-3.47,6.21-16.37,12.42-32.74,18.62-49.12.48-1.25.92-2.52,1.37-3.77-.19-.09-.26-.16-.34-.16-2.06-.02-4.12-.03-6.18-.03"/>
  <path class="st3" d="M286.22,244.57v22.71c0,4.8-2.44,7.16-7.33,7.16s-7.33-2.36-7.33-7.16v-28.08h-10.83v25.88c0,7.25,1.88,11.97,5.62,14.33,3.74,2.44,7.73,3.66,12.21,3.66s8.87-1.14,12.69-3.33c3.83-2.36,5.7-7.25,5.7-14.65v-25.88h-5.54c-3.58,0-5.29,1.79-5.21,5.37"/>
  <path class="st3" d="M320.16,238.54c-12.29,0-18.47,6.1-18.47,18.4v25.31h10.99v-27.51c.08-4.48,2.52-6.68,7.33-6.68s7.24,2.2,7.49,6.68v22.14c0,3.42,1.79,5.12,5.37,5.37h5.54v-25.31c.08-12.29-5.94-18.4-18.23-18.4"/>
  <path class="st3" d="M362.64,238.54c-13.11.08-19.7,7.41-19.7,22.06s6.51,22.22,19.53,22.63c10.58,0,16.44-5.05,18.8-14.16h-7.97c-1.47,0-2.69.49-3.66,1.55-2.12,2.03-4.47,3.09-7,3.09-5.29,0-8.14-3.34-8.55-9.93h27.83c.82-16.85-5.61-25.23-19.29-25.23M354.26,256.04c.81-5.7,3.58-8.63,8.22-8.63s7.33,2.93,7.98,8.63h-16.2Z"/>
  <path class="st3" d="M250.63,231.17c0-2.96-2.45-5.67-5.42-5.67h-5.84v48.91c-.09,5,1.95,7.62,6.18,8.04,4.23.42,8.21.42,11.85.09v-8.55h-3.47c-2.2,0-3.3-1.02-3.3-2.88v-24.79h1.19c3.13,0,5.58-2.37,5.58-5.59v-2.45h-6.77v-7.11Z"/>
  <path class="st2" d="M147.62,238.54c-9.94,0-15.55,3.91-16.86,11.89h10.83c.57-2.03,2.68-3.01,6.51-3.01,4.48,0,6.76,1.22,7,3.66,0,2.36-2.36,3.74-7,4.31-10.91,1.06-18.4,3.83-18.65,14.17,0,9.53,7.17,14.33,17.51,13.51,11.64-.81,18.81-6.11,18.81-17.99v-14.66c-.25-7.98-6.27-11.89-18.16-11.89M155.27,264.6c0,6.11-3.66,9.69-9.69,9.69-3.42,0-5.21-1.63-5.45-5.05,0-3.17,2.2-5.21,6.51-6.03,3.18-.65,6.11-1.54,8.63-2.61v3.99Z"/>
  <path class="st2" d="M62.41,255.39c-5.62-1.06-8.38-2.77-8.38-4.96s2.12-3.34,6.35-3.34c3.58,0,5.78,1.06,6.51,2.93.65,1.71,2.28,2.6,4.8,2.69h6.84c-.25-4.48-1.96-7.98-5.13-10.5-3.25-2.44-7.65-3.66-13.18-3.66-9.85.16-17.18,4.56-17.18,13.84.09,6.76,4.97,10.99,14.49,12.7,7.41,1.3,11.15,3.09,11.15,5.29,0,2.77-2.28,4.07-6.84,4.07-5.29,0-8.71-1.63-8.95-6.35h-11.07c0,4.96,1.63,8.71,4.89,11.15,2.93,2.52,7.49,3.82,13.51,3.82,11.39,0,19.7-3.91,19.7-14.49,0-2.93-.98-5.53-3.01-7.65-2.36-2.2-7.16-4.07-14.49-5.54"/>
  <path class="st2" d="M104.81,238.71c-12.94,0-19.61,6.35-20.19,19.21v41.18h5.45c3.58,0,5.37-1.79,5.37-5.37v-17.34c2.77,4.48,6.84,6.68,12.21,6.68,11.48-.41,17.18-7.98,17.18-22.63s-6.68-21.73-20.02-21.73M104.65,273.38c-5.86,0-8.87-4.15-9.2-12.45-.08-8.71,2.85-13.02,9.03-13.02s9.28,4.31,9.28,13.02c-.25,8.3-3.26,12.45-9.11,12.45"/>
  <path class="st2" d="M170.41,260.03v22.22h10.99v-22.38c0-6.27,3.01-9.44,9.03-9.44h3.66v-11.23h-1.54c-14.41,0-21.81,6.92-22.14,20.84"/>
  <path class="st2" d="M236.33,240.74h-13.02l-13.35,15.3v-23.85c0-2.85-2.36-5.29-5.21-5.29h-5.62v55.35h10.83v-15.71c0-1.14.57-1.87,1.71-2.12,1.38,0,2.77,1.22,4.15,3.66l7.65,14.16h13.02l-15.06-25.55,14.9-15.95Z"/>
  <path class="st3" d="M156.13,29.5c.93.36,1.82.75,2.7,1.18,4.8,2.36,8.76,5.72,11.91,9.18,4.92,5.41,7.83,11.06,8.82,13.45h0c.21.18.41.37.6.58.02,0,.04.02.07.03v.05c.41.48.74,1.04.97,1.66.03.08.06.15.09.23.33,1,.34,2.03.11,2.98-.44,1.81-1.77,3.36-3.67,3.97-1.4.45-2.84.31-4.07-.28.12.35.24.69.35,1.05.42,1.37.74,2.79.92,4.27.21,1.68.23,3.33.11,4.93.02.03.05.05.08.09-.56.91-1.21,1.76-1.89,2.58.32.88.66,1.74,1.02,2.57.22-1.7,1.61-3.09,3.39-3.09h7.08c1.08,0,2.07-.53,2.7-1.37.65-.87,1.58-1.47,2.64-1.47h2.66c1.06,0,1.99.6,2.64,1.47.63.84,1.61,1.37,2.7,1.37h7.08c2.26,0,3.91,2.25,3.29,4.52-.16.59-.33,1.26-.53,2,.99-1.84,1.89-3.85,2.68-6-.68-.82-1.33-1.67-1.89-2.58.03-.03.05-.06.08-.09-.12-1.61-.1-3.26.11-4.93.19-1.52.52-3,.96-4.41.09-.31.2-.61.3-.91-1.23.59-2.67.73-4.07.28-1.95-.63-3.3-2.24-3.7-4.1-.03-.15-.06-.3-.08-.46-.1-.78-.04-1.6.22-2.39.23-.72.6-1.35,1.06-1.89v-.05s.05-.02.07-.03c.18-.21.38-.4.59-.57h0c.99-2.4,3.9-8.05,8.82-13.46,3.14-3.45,7.1-6.82,11.91-9.18,1.96-.96,4.05-1.76,6.29-2.33.55-.14,1.11-.27,1.68-.38,2.13-.43,4.01-.95,5.66-1.49-11.69-5.95-28.55-13.07-43.57-13.95-1.05-.06-2.09-.1-3.13-.1s-2.08.04-3.13.1c-15.01.88-31.88,8.01-43.57,13.95,1.64.54,3.52,1.06,5.66,1.49,1.85.37,3.61.89,5.28,1.53"/>
  <path class="st3" d="M275.23,120.55c-5.38-27.86-11.61-50.46-16.28-65.58-2.09.65-5.73,1.58-8.76,1.24-1.07-.17-2.08-.32-3.05-.46.29,1.75.63,3.79,1.02,6.18.25,1.52.51,3.18.8,4.99.02.19.04.38.06.57l4.85,31.39c.8,5.34,1.66,11.2,2.61,17.63,4.73,32.25-46.11,62.96-61.12,69.99-1.07.51-2.23.75-3.38.75-.03,0-.06,0-.09,0s-.05,0-.08,0c-1.16,0-2.31-.25-3.39-.75-15-7.03-65.85-37.74-61.12-69.99.95-6.43,1.81-12.29,2.61-17.63l4.85-31.39c.02-.19.04-.39.06-.57.29-1.81.55-3.47.8-4.99.39-2.39.72-4.43,1.02-6.18-.96.14-1.98.29-3.05.46-3.03.34-6.67-.59-8.76-1.24-4.67,15.11-10.9,37.72-16.28,65.58-7.55,39.08,55.57,78.21,77.03,89.08.25.12.49.25.72.36,1.01.46,3.03,1.19,5.58,1.22,2.56-.02,4.57-.76,5.58-1.22.23-.12.47-.24.72-.36,21.46-10.87,84.58-49.99,77.03-89.08"/>
  <path class="st3" d="M140.65,37.09c.52,0,1.05,0,1.59-.02.47-.01.96-.03,1.46-.05.1,0,.21,0,.31-.01-.49-.14-.99-.28-1.51-.41-1.06-.28-2.18-.58-3.37-.88-.02,0-.04-.01-.06-.02-.09-.02-.17-.05-.25-.08-1.8-.6-3.6-1.69-5.09-2.76-.36.35-1.18,1.27-2.24,3.19,1.09.26,2.52.54,4.29.75,1.42.16,3.04.28,4.86.29"/>
  <path class="st3" d="M243.02,37.09c.29,0,.58,0,.86-.01,1.49-.03,2.83-.13,4.03-.26,1.82-.21,3.29-.49,4.39-.76-1.06-1.93-1.88-2.84-2.24-3.2-1.48,1.07-3.27,2.16-5.06,2.75-.11.04-.23.07-.34.11-.2.05-.39.1-.59.15-1.54.39-2.97.77-4.29,1.14.1,0,.21,0,.31.02,1.03.05,2,.07,2.93.07"/>
  <path class="st2" d="M285.74,36.02c-12.76,5.97-21.03,8.26-27.83,8.93,1.02-.49,1.66-.86,1.66-.86,11.38-5.2,22.05-17.3,23.36-20.7.82-2.1-1-1.41-1.29-1.22-12.2,8.12-20.19,11.58-26.97,13.18,0,0-.82.33-2.38.7-1.1.26-2.58.55-4.39.75-1.2.14-2.54.23-4.03.27-.28,0-.56.01-.86.01-.93,0-1.9-.02-2.93-.07-.1,0-.21,0-.31-.02,1.32-.37,2.75-.74,4.29-1.14.19-.05.39-.1.59-.15.11-.04.23-.07.34-.11,1.79-.6,3.58-1.68,5.06-2.75,2.05-1.47,3.51-2.9,3.51-2.9,9.73-7.87,17.04-22.26,17.46-25.87.27-2.24-1.32-1.11-1.55-.86-9.79,10.9-16.67,16.25-22.84,19.49,0,0-2.71,2-8.05,3.76-1.64.54-3.52,1.06-5.65,1.49-.57.11-1.13.24-1.68.39-2.24.57-4.33,1.37-6.29,2.33-4.81,2.36-8.77,5.72-11.91,9.18-4.92,5.41-7.83,11.06-8.82,13.45h0c-.21.18-.41.37-.6.58-.02,0-.04.02-.07.03v.04c-.46.54-.83,1.17-1.06,1.89-.26.8-.32,1.61-.22,2.39.02.15.04.3.08.46.4,1.87,1.75,3.48,3.7,4.1,1.4.45,2.84.31,4.07-.27.32-.15.62-.33.91-.54.27-.09.56-.19.86-.31.05-.02.1-.04.16-.06.62-.25,1.21-.49,1.79-.73,13.89-5.7,16.85-7.35,31.93-5.31.44.06.89.12,1.35.19.97.14,1.98.29,3.05.45,3.02.34,6.67-.58,8.76-1.24,1.04-.32,1.69-.58,1.69-.58,12.03-3.44,24.38-13.82,26.19-16.98,1.12-1.96-.78-1.54-1.09-1.4"/>
  <path class="st2" d="M171.72,61.62c.36.15.7.27,1.02.37.28.21.59.39.91.54,1.23.59,2.67.73,4.07.28,1.9-.61,3.23-2.16,3.67-3.97.23-.95.21-1.98-.11-2.98-.03-.08-.06-.16-.09-.23-.23-.62-.56-1.18-.97-1.66v-.05s-.05-.02-.07-.03c-.18-.21-.38-.4-.59-.57h0c-.99-2.4-3.9-8.04-8.82-13.46-3.14-3.45-7.1-6.82-11.91-9.18-.87-.43-1.77-.82-2.7-1.18-1.67-.65-3.43-1.17-5.28-1.53-2.13-.43-4.01-.95-5.66-1.49-5.34-1.76-8.05-3.77-8.05-3.77-6.18-3.24-13.05-8.58-22.84-19.49-.23-.25-1.82-1.38-1.55.86.43,3.61,7.74,18,17.47,25.87,0,0,1.46,1.43,3.51,2.91,1.49,1.07,3.29,2.17,5.09,2.76.08.03.17.05.25.08.02,0,.04.01.06.02,1.19.3,2.31.59,3.37.88.52.14,1.02.28,1.51.41-.1,0-.21,0-.31.02-.5.02-.98.04-1.46.05-.54.01-1.08.02-1.6.02-1.82-.02-3.44-.13-4.85-.29-1.77-.21-3.21-.49-4.29-.75-1.56-.37-2.38-.71-2.38-.71-6.79-1.6-14.78-5.05-26.98-13.18-.28-.19-2.1-.89-1.28,1.22,1.31,3.39,11.98,15.49,23.36,20.7,0,0,.64.37,1.66.86-6.8-.67-15.07-2.96-27.82-8.93-.31-.15-2.21-.56-1.09,1.4,1.81,3.16,14.16,13.53,26.19,16.98,0,0,.66.26,1.7.58,2.09.65,5.73,1.58,8.76,1.24,1.07-.16,2.08-.32,3.05-.45.46-.07.91-.13,1.35-.19,15.09-2.03,18.04-.39,31.93,5.31.56.23,1.13.46,1.73.7.02,0,.04.02.07.03"/>
  <path class="st2" d="M174.24,78.01c-.06.46-.03.95.1,1.43,2.58,9.53,9.23,41.4,17.04,41.78v-49.16h-1.33c-1.06,0-1.99.6-2.64,1.48-.63.84-1.61,1.37-2.7,1.37h-7.08c-1.78,0-3.17,1.39-3.39,3.09"/>
  <g class="st1">
    <g class="st4">
      <path class="st2" d="M247.11,57.49c-.41-.67-.85-1.3-1.32-1.91-15.09-2.03-18.04-.39-31.93,5.31-.58.24-1.17.48-1.79.73-.06.02-.11.04-.16.06-.3.12-.59.22-.86.31-.28.21-.59.39-.91.54-.1.3-.21.6-.3.9-.45,1.41-.77,2.89-.96,4.41-.21,1.68-.23,3.33-.11,4.93-.03.03-.05.05-.08.08.56.92,1.21,1.77,1.89,2.58,3.2,3.83,7.63,6.48,12.78,7.12,11.46,1.43,22.01-7.55,23.57-20.06.21-1.67.23-3.32.11-4.93.03-.03.05-.05.08-.08"/>
      <path class="st2" d="M174.92,67.84c-.18-1.48-.49-2.9-.92-4.27-.11-.35-.23-.7-.35-1.05-.32-.15-.62-.33-.91-.54-.32-.1-.66-.22-1.02-.37-.02-.01-.04-.02-.07-.03-.6-.24-1.17-.48-1.73-.71-13.89-5.7-16.84-7.34-31.93-5.31-.47.61-.91,1.25-1.32,1.91.03.03.05.05.08.08-.12,1.61-.1,3.26.11,4.93,1.56,12.51,12.11,21.49,23.57,20.06,5.14-.64,9.57-3.29,12.78-7.12.68-.81,1.33-1.66,1.89-2.58-.02-.03-.05-.05-.08-.08.12-1.61.1-3.26-.11-4.93"/>
      <path class="st2" d="M205.12,74.91h-7.08c-1.09,0-2.07-.53-2.7-1.37-.65-.87-1.58-1.47-2.64-1.47h-1.33v49.15c7.33-.35,13.63-28.44,16.52-39.78.19-.74.36-1.42.52-2,.62-2.27-1.03-4.52-3.29-4.52"/>
    </g>
  </g>
</svg>