<?xml version="1.0" encoding="UTF-8"?>
<svg id="Layer_1" xmlns="http://www.w3.org/2000/svg" xmlns:xlink="http://www.w3.org/1999/xlink" version="1.1" viewBox="0 0 283.46 283.46">
  <!-- Generator: Adobe Illustrator 30.2.1, SVG Export Plug-In . SVG Version: 2.1.1 Build 1)  -->
  <defs>
    <style>
      .st0 {
        fill: none;
      }

      .st1 {
        clip-path: url(#clippath-1);
      }

      .st2 {
        clip-path: url(#clippath-3);
      }

      .st3 {
        clip-path: url(#clippath-4);
      }

      .st4 {
        clip-path: url(#clippath-2);
      }

      .st5 {
        fill: #003c57;
      }

      .st6 {
        opacity: .4;
      }

      .st7 {
        clip-path: url(#clippath);
      }
    </style>
    <clipPath id="clippath">
      <rect class="st0" x="87.05" y="39.73" width="46.29" height="35.12"/>
    </clipPath>
    <clipPath id="clippath-1">
      <rect class="st0" x="149.91" y="39.75" width="46.24" height="35.33"/>
    </clipPath>
    <clipPath id="clippath-2">
      <rect class="st0" x="264.26" y="222.25" width="17.68" height="53.78"/>
    </clipPath>
    <clipPath id="clippath-3">
      <rect class="st0" x="178.88" y="218.51" width="40.99" height="58.04"/>
    </clipPath>
    <clipPath id="clippath-4">
      <rect class="st0" x="223.12" y="232.09" width="36.34" height="44.42"/>
    </clipPath>
  </defs>
  <g class="st6">
    <g class="st7">
      <path class="st5" d="M113.45,74.85c7.93,0,15.05-3.82,19.89-9.86-7.89-10.94-22.08-23.84-45.64-25.25-.42,2.03-.65,4.13-.65,6.31,0,15.91,11.82,28.81,26.4,28.81"/>
    </g>
  </g>
  <g class="st6">
    <g class="st1">
      <path class="st5" d="M169.75,75.09c14.58,0,26.4-12.9,26.4-28.81,0-1.58-.12-3.13-.36-4.64-.18-.98-.3-1.58-.36-1.89-23.58,1.53-37.72,14.58-45.53,25.53,4.84,6.01,11.93,9.81,19.84,9.81"/>
    </g>
  </g>
  <path class="st5" d="M231.02,9.05c.8-2.46-1.29-1.53-1.61-1.3-13.91,10.31-23.1,14.85-31.04,17.16-9.32-5.56-34.9-19.5-56.8-19.49-22.62,0-47.55,13.8-56.76,19.41-7.87-2.33-17.02-6.88-30.75-17.07-.32-.24-2.41-1.17-1.61,1.3,1.29,3.97,12.22,21.06,25.22,27.84-4.63,13.7-13.05,41.11-20.05,77.34-7.59,39.34,55.93,78.71,77.53,89.65.25.12.49.25.72.36,1.02.47,3.09,1.22,5.7,1.23,2.62,0,4.68-.76,5.7-1.23.23-.12.48-.24.72-.36,21.6-10.94,85.12-50.31,77.53-89.65-6.97-36.11-15.36-63.45-20-77.2,13.13-6.69,24.2-23.98,25.5-27.99M141.57,14.03c2.63.02,21.29.65,39.77,13.83-24.01,3.59-35.29,17.51-38.56,22.37-.5.74-1.58.74-2.08,0-3.28-4.88-14.64-18.88-38.84-22.41,18.46-13.15,37.08-13.78,39.71-13.8M76.65,110.19c8.11-55.22,10.68-68.6,11.05-70.47,23.56,1.41,37.75,14.31,45.64,25.25,3.68,5.11,5.99,9.79,7.23,12.67.43,1.02,1.88,1.02,2.31,0,1.22-2.83,3.46-7.38,7.02-12.37,7.81-10.95,21.95-24,45.53-25.53.05.22.12.6.22,1.15.05.25.1.49.14.74.48,2.63,1.44,8.1,3.12,18.63,1.38,12.87.46,50.29-54.3,60.6-29.28,5.52-45.65,15.25-54.73,23.81-9-10.51-15-22.4-13.22-34.5M206.48,110.19c4.77,32.46-46.41,63.37-61.51,70.44-1.08.51-2.25.76-3.41.76s-2.32-.25-3.41-.76c-5.22-2.45-14.75-7.74-24.79-14.96,5.96-9.86,18.11-22.09,42.8-29.62,31.56-9.63,43.4-28.58,47.68-43.61.8,5.37,1.67,11.27,2.63,17.75"/>
  <g class="st6">
    <g class="st4">
      <path class="st5" d="M281.94,276.01c-1.66,0-3.33-.01-4.99,0-2.86.02-5.72.09-8.44-1.05-2.67-1.13-4.06-3.13-4.21-5.99-.06-1.14-.03-2.29-.03-3.43,0-13.9,0-27.8,0-41.7,0-1.72-.25-1.6,1.65-1.59,1.49.02,2.99-.02,4.47.16,2.74.34,4.58,2.45,4.65,5.2.04,1.76-.02,3.52.04,5.28,0,.33.36.93.55.93,3.14.02,5.19,1.54,6.32,4.41v3.44c-1.84,0-3.69.05-5.53-.03-1.13-.05-1.39.39-1.38,1.45.04,7.11.01,14.22.03,21.33,0,.56.13,1.13.2,1.69.12.94.76,1.44,1.6,1.47,1.69.06,3.39,0,5.08-.02v8.45Z"/>
    </g>
  </g>
  <g class="st6">
    <g class="st2">
      <path class="st5" d="M210.6,273.62c-1.21.55-2.31,1.1-3.44,1.55-8.19,3.28-19.13.45-24.32-6.31-1.89-2.46-2.96-5.3-3.44-8.33-.81-5.14-.83-10.27.89-15.24,2.59-7.49,7.97-11.67,15.75-12.86,3-.46,5.99-.54,8.78.85,1.43.71,2.69,1.75,4.15,2.72.02-.31.06-.71.06-1.1,0-3.61,0-7.22,0-10.82,0-3.18,2.14-5.43,5.29-5.55,1.54-.06,3.08.02,4.62-.03.71-.02.96.25.89.92-.03.26,0,.53,0,.79v53.73q0,1.66-1.63,1.67c-2.03,0-4.05,0-6.07,0-1.37,0-1.37,0-1.44-1.44,0-.13-.05-.25-.11-.54M189.61,254.53c.13,1.35.16,2.73.41,4.06.54,2.85,1.5,5.54,3.91,7.41,4.69,3.62,11.76,1.5,14.06-4.26,1.9-4.77,1.77-9.65.24-14.46-1.2-3.77-4.35-6.03-8.06-6.16-4.41-.15-7.44,1.62-9.09,5.41-1.1,2.54-1.38,5.25-1.47,8"/>
    </g>
  </g>
  <path class="st5" d="M159.8,257.24h-13.87q-1.52,0-1.35,1.55c.53,5.06,4.09,8.45,9.27,8.77,3.23.2,6.11-.53,8.31-3.12.96-1.14,2.28-1.63,3.75-1.64,2.46-.01,4.93.03,7.4-.02.98-.02,1.24.25.96,1.22-1.08,3.67-3.42,6.43-6.38,8.67-3.34,2.52-7.2,3.58-11.33,3.84-5.93.38-11.33-1.02-16.15-4.58-3.68-2.72-5.67-6.46-6.5-10.83-1.12-5.94-1.05-11.86,1.38-17.5,3-6.92,8.51-10.56,15.89-11.43,4.3-.51,8.55-.12,12.54,1.66,6.43,2.86,9.78,8.12,10.91,14.86.4,2.41.32,4.9.5,7.36.07.92-.26,1.21-1.19,1.2-4.71-.04-9.42-.02-14.13-.02M154.23,249.95c2.77,0,5.53-.02,8.3.01.77,0,1.24-.16.93-1.03-.45-1.31-.74-2.74-1.46-3.9-2.02-3.25-6.29-4.6-10.65-3.57-3.56.83-5.73,3.95-6.48,7.55-.17.82.23.95.93.95,2.81-.03,5.62-.01,8.43-.01"/>
  <g class="st6">
    <g class="st3">
      <path class="st5" d="M259.46,252.57c-.12,3.21.08,6.46-.42,9.61-1.09,6.87-5.05,11.44-11.86,13.34-7.22,2.02-13.93.96-20.02-3.48-5.64-4.11-4.63-12.39-1.56-16.1,2.42-2.93,5.64-4.45,9.22-5.21,2.87-.6,5.8-.87,8.69-1.39,1.11-.2,2.24-.56,3.22-1.09,2.31-1.26,2.3-4.78.04-6.14-1.84-1.11-3.91-1.22-5.99-1.18-.39,0-.79.09-1.18.13-2.83.31-4.53,1.67-5.22,4.44-.25,1-.7,1.2-1.62,1.18-2.6-.05-5.19-.02-7.79-.02-1.52,0-1.56-.02-1.33-1.57.8-5.53,3.49-9.72,8.95-11.51,7.08-2.31,14.13-1.95,20.94,1.15,3.79,1.73,5.47,4.97,5.65,9,.13,2.94.02,5.88.02,8.83h.25ZM248.61,257.6c-.07-.01-.14-.02-.2-.03,0-.7.04-1.41-.03-2.11-.02-.15-.51-.44-.62-.38-2.3,1.25-4.89,1.34-7.35,1.94-1.4.34-2.83.73-4.08,1.4-2.04,1.1-2.46,3.08-2.22,5.23.23,2.01,1.42,3.28,3.5,3.78,2.64.63,5.03-.12,7.3-1.43,1.44-.83,2.47-2.03,2.86-3.63.38-1.56.57-3.17.85-4.76"/>
    </g>
  </g>
  <path class="st5" d="M118.38,248.43c0-4.75.02-9.5-.02-14.25,0-.88.26-1.15,1.12-1.11,1.75.08,3.53-.05,5.27.15,2.82.31,4.74,2.57,4.75,5.41.01,5.85.05,11.71-.01,17.56-.05,4.19-.87,8.24-3.04,11.88-3.52,5.89-11.6,9.46-18.6,8.31-4.93-.81-9.07-3.05-12.23-6.93-2.17-2.66-3.14-5.88-3.58-9.23-.31-2.39-.45-4.82-.47-7.23-.06-6.21,0-12.41-.05-18.61,0-1.07.33-1.38,1.35-1.32,1.67.09,3.35-.06,5.01.12,2.96.32,4.91,2.59,4.91,5.56.01,6.03-.03,12.06.03,18.09.01,1.44.17,2.91.52,4.3.86,3.44,3.61,5.6,7.03,5.74,3.1.12,6.16-1.99,7.2-5.19.43-1.32.6-2.75.64-4.14.09-3.03.03-6.07.03-9.11h.13Z"/>
  <path class="st5" d="M42.17,244.47c0-7.3.02-14.6-.02-21.91,0-1.1.3-1.47,1.4-1.4,1.36.09,2.73,0,4.09.03,3.22.08,5.53,2.45,5.54,5.66,0,1.67.03,3.34-.02,5.02-.02.75.12,1.07.99,1.09,4.14.09,6.54,3.11,5.81,7.25-.04.25-.57.59-.88.6-1.67.06-3.34.06-5.02.02-.68-.02-.91.21-.91.9.02,7.31,0,14.61.03,21.91.02,2.34.39,2.69,2.73,2.97,1.04.13,2.11.13,3.16.1.67-.02.95.14.94.85-.03,2.15.01,4.31-.04,6.47,0,.31-.39.88-.6.88-3.64.09-7.31.66-10.89-.31-1.41-.38-2.83-1.03-3.99-1.9-2.17-1.62-2.3-4.15-2.32-6.59-.04-7.21-.02-14.43-.02-21.64"/>
  <path class="st5" d="M33.62,221.44c-.45,1.26-.9,2.53-1.37,3.79-6.23,16.44-12.46,32.88-18.7,49.32-.82,2.16-2.82,3.42-5.55,3.48-1.85.03-3.7-.04-5.55.02-.98.03-1.1-.22-.76-1.11,2.34-6.12,4.63-12.25,6.95-18.38,4.17-11.06,8.36-22.12,12.53-33.18,1.06-2.82,2.89-4.11,5.9-4.12,2.07,0,4.14.01,6.21.03.08,0,.16.07.34.15"/>
  <path class="st5" d="M64.58,257.79c0-5.06.07-10.12-.02-15.18-.1-5.85,4.63-9.68,9.46-9.45,4.17.19,8.36.06,12.54.02.91,0,1.23.24,1.19,1.18-.07,1.71,0,3.43-.02,5.15-.03,2.73-1.79,4.53-4.54,4.58-2.11.04-4.23.06-6.34-.01-1.05-.03-1.33.33-1.32,1.36.03,9.28.02,18.57.02,27.85q0,1.61-1.55,1.61c-2.73,0-5.46-.04-8.19.02-1.01.02-1.26-.34-1.25-1.3.04-5.28.02-10.56.02-15.84"/>
</svg>