<?xml version="1.0" encoding="UTF-8"?>
<svg id="Layer_1" xmlns="http://www.w3.org/2000/svg" xmlns:xlink="http://www.w3.org/1999/xlink" version="1.1" viewBox="0 0 191.63 217.45">
  <!-- Generator: Adobe Illustrator 30.2.1, SVG Export Plug-In . SVG Version: 2.1.1 Build 1)  -->
  <defs>
    <style>
      .st0 {
        fill: none;
      }

      .st1 {
        fill: #070f37;
      }

      .st2 {
        fill: #ff0051;
      }

      .st3 {
        clip-path: url(#clippath-1);
      }

      .st4 {
        clip-path: url(#clippath-2);
      }

      .st5 {
        opacity: .8;
      }

      .st6 {
        opacity: .4;
      }

      .st7 {
        clip-path: url(#clippath);
      }
    </style>
    <clipPath id="clippath">
      <rect class="st0" x="51.41" y="40.71" width="38.39" height="29.13"/>
    </clipPath>
    <clipPath id="clippath-1">
      <rect class="st0" x="103.54" y="40.73" width="38.35" height="29.31"/>
    </clipPath>
    <clipPath id="clippath-2">
      <rect class="st0" x="96.65" y="64" width="10.44" height="30.35"/>
    </clipPath>
  </defs>
  <g class="st6">
    <g class="st7">
      <path class="st1" d="M73.31,69.84c6.58,0,12.48-3.17,16.5-8.18-6.54-9.07-18.31-19.77-37.85-20.94-.35,1.68-.54,3.43-.54,5.23,0,13.19,9.81,23.89,21.9,23.89"/>
    </g>
  </g>
  <g class="st6">
    <g class="st3">
      <path class="st1" d="M120,70.04c12.09,0,21.9-10.7,21.9-23.89,0-1.31-.11-2.6-.3-3.85-.15-.81-.25-1.31-.3-1.57-19.55,1.27-31.29,12.09-37.76,21.17,4.02,4.98,9.89,8.13,16.46,8.13"/>
    </g>
  </g>
  <path class="st2" d="M96.65,63.99s-5.17.11-6.62,9.4c0,0-.25,5-2.47,4.71,0,0-1.9.2-1.19,1.39.71,1.19,5.37,6.41,5.39,6.84.03.43,4.85,7.24,4.88,8.01v-30.35Z"/>
  <g class="st5">
    <g class="st4">
      <path class="st2" d="M96.65,63.99s5.17.11,6.62,9.4c0,0,.25,5,2.47,4.71,0,0,1.9.2,1.19,1.39-.71,1.19-5.37,6.41-5.39,6.84-.03.43-4.85,7.24-4.88,8.01v-30.35Z"/>
    </g>
  </g>
  <path class="st1" d="M40.92,21.22c.46-.26.94-.54,1.45-.83h0c-.51.25-.99.53-1.44.83"/>
  <path class="st1" d="M160.36,33.76h0s.03-.01,0,0"/>
  <path class="st1" d="M180.37,110.97c-6.98-36.17-15.39-63.53-20.01-77.21-.01,0-.03.01,0,0-.16-.49-.32-.95-.48-1.4,6.98-6.82,6.09-16.57,6.09-16.57-3.15,1.58-6.66,2.17-10.06,2.23-.12-2.04-1.22-3.63-1.22-3.63-2.58,2.97-12.64.47-17.07-.83-11.12-5.19-25.14-10.38-37.84-11.13-1.05-.06-2.1-.1-3.14-.1s-2.09.04-3.14.1c-17.8,1.05-38.18,10.82-49.55,17.08-.3.22-.8.5-1.58.88-.51.29-.99.56-1.45.83-6.32,4.09-7.98,12.54-7.98,12.54-4.62,13.68-13.03,41.04-20.01,77.21-6.2,32.11,35.06,64.23,62.1,80.86-.85,5.51,3.1,8.89,3.1,8.89.63-3.36,3.99-4.69,3.99-4.69-7.58,11.86,4.83,19.08,4.83,19.08.71-5.4,9.45-11.06,15.04-14.17.09-.04.18-.08.26-.11.23-.12.47-.24.72-.36,1.11-.56,2.33-1.2,3.63-1.9,0,0,.01,0,.01,0,24.25-13.06,80.94-50.34,73.75-87.59M100.14,177.25c-1.08.51-2.24.76-3.4.76-.03,0-.06,0-.08,0s-.06,0-.08,0c-1.16,0-2.32-.25-3.4-.76-15.07-7.06-66.16-37.92-61.4-70.32.95-6.47,1.82-12.35,2.62-17.72l4.87-31.54c.02-.2.04-.39.06-.58.29-1.82.56-3.49.81-5.02,1.18-7.3,1.91-11.41,2.31-13.59.04-.25.09-.49.14-.73.11-.55.18-.93.22-1.15,1.74-2.01,3.61-3.87,5.57-5.56,19.75-18.04,44.5-18.55,48.1-18.59.04,0,.07,0,.1,0,.03,0,.06,0,.08,0,.03,0,.06,0,.08,0,.03,0,.07,0,.1,0,3.61.03,28.36.54,48.1,18.59,1.96,1.7,3.83,3.55,5.57,5.56.04.22.12.6.22,1.15.04.25.1.49.14.73.4,2.17,1.12,6.29,2.31,13.59.25,1.53.52,3.19.81,5.02.02.19.04.38.06.58l4.87,31.54c.8,5.37,1.68,11.25,2.63,17.72,4.76,32.4-46.33,63.26-61.4,70.32"/>
  <path class="st1" d="M43.96,19.52c-.55.3-1.08.6-1.58.88.78-.38,1.28-.66,1.58-.88"/>
</svg>