<?xml version="1.0" encoding="UTF-8"?>
<svg id="Layer_1" xmlns="http://www.w3.org/2000/svg" version="1.1" viewBox="0 0 240.37 207.27">
  <!-- Generator: Adobe Illustrator 30.2.1, SVG Export Plug-In . SVG Version: 2.1.1 Build 1)  -->
  <defs>
    <style>
      .st0 {
        fill: #fff;
      }

      .st1 {
        fill: #253e85;
      }

      .st2 {
        opacity: .5;
      }

      .st3 {
        fill: #f08c1e;
      }
    </style>
  </defs>
  <g>
    <g>
      <path class="st0" d="M74.29,99.46c-.09.2-.25.6-.52,1.26-.38,1.01-.69,2.07-.91,3.16-2.29,11.02,4.04,21.66,14.14,23.76,5.48,1.14,10.94-.47,15.15-3.94-3.83-8.71-11.75-19.79-27.86-24.24Z"/>
      <path class="st0" d="M167.52,103.88c-.23-1.1-.54-2.15-.91-3.16-.27-.65-.43-1.05-.52-1.26-16.11,4.45-24.03,15.53-27.86,24.24,4.22,3.47,9.68,5.08,15.15,3.94,10.1-2.1,16.43-12.74,14.14-23.76Z"/>
    </g>
    <g class="st2">
      <path class="st3" d="M74.29,99.46c-.09.2-.25.6-.52,1.26-.38,1.01-.69,2.07-.91,3.16-2.29,11.02,4.04,21.66,14.14,23.76,5.48,1.14,10.94-.47,15.15-3.94-3.83-8.71-11.75-19.79-27.86-24.24Z"/>
      <path class="st3" d="M167.52,103.88c-.23-1.1-.54-2.15-.91-3.16-.27-.65-.43-1.05-.52-1.26-16.11,4.45-24.03,15.53-27.86,24.24,4.22,3.47,9.68,5.08,15.15,3.94,10.1-2.1,16.43-12.74,14.14-23.76Z"/>
    </g>
  </g>
  <path class="st1" d="M222.91,128.77c-5.3-11.98-13.97-27.48-21.02-39.52-.25-.43-.5-.86-.75-1.28.05-.43.13-1.18.24-2.2.79-7.55,2.94-30.12,2.9-50.56,0-2.76-.05-5.49-.15-8.13-.04-1.06-.08-2.1-.14-3.13-.41-7.71-1.29-14.55-2.89-19.36,0,0-1.36.59-3.69,1.78-.36.18-.74.38-1.14.59-.81.42-1.7.9-2.67,1.44-10.91,6.05-31.37,19.35-45.52,40.39-.3-.09-.59-.18-.88-.27-.05-.01-.1-.03-.14-.04-1.55-.45-3.11-.86-4.68-1.25-.16-.04-.31-.08-.47-.12-.41-.1-.83-.19-1.24-.28-.41-.09-.83-.19-1.24-.28-.02,0-.04,0-.06-.01-.02,0-.04,0-.06-.01-.84-.18-1.68-.35-2.52-.51-.03,0-.07-.01-.1-.02-.79-.15-1.59-.29-2.38-.42-.08-.01-.16-.03-.24-.04,0,0,0,0,0,0,0,0,0,0,0,0-.1-.02-.2-.03-.3-.05-.42-.07-.85-.14-1.27-.2-.09-.01-.19-.03-.28-.04-.43-.06-.86-.12-1.29-.18-.11-.01-.21-.02-.32-.04-.42-.05-.83-.1-1.25-.15-.11-.01-.23-.02-.34-.03-.93-.1-1.86-.18-2.78-.24-.34-.02-.69-.04-1.03-.06-.17,0-.35-.02-.52-.03-1.03-.05-2.06-.07-3.07-.07h0c-.05,0-.11,0-.16,0s-.11,0-.16,0h0c-.18,0-.36,0-.55.01-.18,0-.37,0-.55.01-.18,0-.36,0-.55-.01-.18,0-.37-.01-.55-.01h0c-.05,0-.11,0-.16,0s-.11,0-.16,0h0c-1.02,0-2.04.02-3.07.07-.17,0-.35.02-.52.03-.34.02-.69.04-1.03.06-.92.06-1.85.15-2.78.24-.11.01-.22.02-.34.03-.42.05-.83.1-1.25.15-.11.01-.21.02-.32.04-.43.06-.86.12-1.29.18-.09.01-.19.02-.28.04-.42.06-.85.13-1.27.2-.1.02-.2.03-.3.05,0,0,0,0,0,0,0,0,0,0,0,0-.08.01-.16.03-.24.04-.79.13-1.59.27-2.38.42-.03,0-.07.01-.1.02-.84.16-1.68.33-2.52.51-.02,0-.04,0-.06.01-.02,0-.04,0-.06.01-.42.09-.83.19-1.24.28-.41.09-.83.18-1.24.28-.16.04-.31.08-.47.12-1.57.39-3.13.8-4.68,1.25-.05.01-.1.03-.14.04-.3.09-.59.18-.88.27C78.16,27.77,57.69,14.46,46.78,8.42c-.97-.54-1.86-1.02-2.67-1.44-.4-.21-.79-.41-1.14-.59-2.33-1.19-3.69-1.78-3.69-1.78-1.6,4.81-2.48,11.64-2.89,19.36-.05,1.03-.1,2.07-.14,3.13-.1,2.64-.14,5.37-.15,8.13-.05,20.44,2.11,43.01,2.9,50.56.11,1.02.19,1.77.24,2.2-.25.42-.5.85-.75,1.28-7.05,12.04-15.72,27.54-21.02,39.52-.57,1.28-1.1,2.53-1.58,3.72l10.13,2.39.07.02s.31.04.91.15c.36.07.83.17,1.4.3,2.86.67,8.34,2.31,16.07,5.99.77.37,1.53.73,2.34,1.13.51.26,1.03.52,1.56.79,1.58.82,3.24,1.72,4.98,2.71,1.16.66,2.35,1.35,3.57,2.09,8.56,5.16,18.74,12.32,30.31,22.24,9.92,8.5,20.87,19.03,32.71,32.07.08.09.17.18.25.27h0c.08-.09.17-.18.25-.27,11.84-13.04,22.79-23.57,32.71-32.07,11.57-9.92,21.75-17.08,30.31-22.24,1.22-.74,2.41-1.43,3.57-2.09,1.73-.99,3.39-1.89,4.98-2.71.53-.27,1.05-.54,1.56-.79.81-.41,1.57-.77,2.34-1.13,7.73-3.69,13.21-5.32,16.07-5.99.95-.22,1.62-.34,1.99-.4.22-.04.33-.05.33-.05l.07-.02,10.13-2.39c-.48-1.19-1.01-2.44-1.58-3.72ZM60.18,62.25c-.38.2-.75.4-1.11.6-.47.25-.93.51-1.38.75-3.16,1.73-5.82,3.3-7.85,4.54-.24.14-.48.3-.71.48-.23.18-.46.37-.69.58-.7-3.57-1.2-7.69-1.56-11.97-.1-1.23-.19-2.46-.28-3.71-.02-.37-.05-.75-.07-1.12-.04-.61-.07-1.21-.1-1.82,0-.07,0-.14-.01-.2-.74-14.52-.19-28.71-.19-28.71,7.11,7.1,19.65,26.16,24.19,33.2.47.73.85,1.33,1.14,1.77-1.38.63-2.73,1.26-4.04,1.89-.44.21-.87.42-1.3.63-.86.42-1.7.84-2.51,1.25-.41.21-.81.41-1.21.62-.8.41-1.57.82-2.32,1.22ZM46.8,126.19c-4.35-2.48-8.56-4.55-12.5-6.01,5.24-9.14,12.15-20.76,18.25-29.48.67-.96,1.33-1.89,1.98-2.77.65-.88,1.28-1.73,1.9-2.52.79-1.01,1.54-1.93,2.27-2.76.24-.25.49-.51.77-.79.09-.09.19-.18.28-.27.19-.18.37-.37.58-.56,52.61,2.64,53.74,80.71,53.72,88.93-2.58.35-5.3,1.31-8.01,3.19-1.29-1.23-2.66-2.51-4.08-3.84-.06-.05-.11-.1-.16-.15-.38-.35-.76-.7-1.14-1.06-.13-.12-.26-.24-.39-.36-.36-.33-.72-.67-1.09-1-.16-.15-.32-.29-.48-.44-.34-.31-.69-.63-1.03-.94-.2-.18-.39-.36-.59-.54-.32-.29-.65-.59-.98-.89-.22-.2-.45-.4-.67-.61-.32-.29-.65-.58-.97-.87-.24-.21-.47-.42-.71-.63-.32-.29-.64-.57-.96-.86-.25-.23-.51-.45-.76-.68-.31-.28-.63-.56-.95-.84-.27-.24-.53-.47-.8-.71-.31-.27-.62-.55-.94-.82-.28-.25-.56-.49-.85-.74-.31-.27-.62-.54-.93-.81-.29-.25-.58-.5-.87-.75-.31-.27-.62-.54-.94-.81-.3-.25-.59-.51-.89-.76-.31-.27-.63-.53-.94-.8-.3-.26-.61-.52-.91-.77-.31-.26-.63-.53-.94-.79-.31-.26-.62-.52-.94-.78-.31-.26-.63-.52-.94-.78-.32-.26-.63-.52-.95-.79-.31-.26-.63-.52-.94-.78-.32-.26-.65-.53-.97-.79-.31-.25-.62-.51-.93-.76-.33-.27-.67-.54-1-.8-.31-.25-.62-.5-.93-.74-.34-.27-.67-.54-1.01-.8-.31-.25-.62-.49-.93-.73-.34-.27-.68-.53-1.02-.8-.31-.24-.62-.48-.93-.73-.34-.26-.68-.52-1.02-.78-.31-.24-.63-.48-.94-.72-.34-.26-.68-.52-1.02-.77-.31-.24-.62-.47-.94-.7-.35-.26-.69-.51-1.04-.77-.31-.23-.62-.46-.93-.68-.35-.26-.7-.51-1.05-.76-.31-.22-.61-.45-.92-.67-.35-.25-.7-.5-1.05-.75-.3-.22-.61-.43-.91-.65-.35-.25-.71-.49-1.06-.74-.3-.21-.6-.42-.9-.63-.36-.25-.72-.49-1.08-.73-.29-.2-.59-.4-.88-.6-.37-.25-.74-.49-1.1-.73-.28-.19-.56-.38-.85-.56-.38-.25-.76-.49-1.14-.74-.27-.17-.53-.35-.8-.51-.41-.26-.82-.52-1.23-.77-.23-.14-.46-.29-.69-.43-.6-.37-1.19-.73-1.79-1.08-.04-.02-.08-.05-.12-.07-.39-.23-.77-.45-1.16-.67-.38-.22-.77-.43-1.15-.65ZM206.07,120.18c-3.93,1.46-8.15,3.54-12.5,6.01-.77.44-1.53.86-2.31,1.32-.04.02-.08.05-.12.07-.59.35-1.19.72-1.79,1.08-.23.14-.46.29-.69.43-.41.26-.82.51-1.23.77-.27.17-.53.34-.8.51-.38.24-.76.49-1.14.74-.28.18-.56.37-.85.56-.37.24-.73.48-1.1.73-.29.2-.59.4-.88.6-.36.24-.72.49-1.08.73-.3.21-.6.42-.9.63-.35.25-.71.49-1.06.74-.3.21-.61.43-.91.65-.35.25-.7.5-1.05.75-.31.22-.61.44-.92.67-.35.25-.7.51-1.05.76-.31.23-.62.46-.93.68-.35.26-.69.51-1.04.77-.31.23-.62.47-.94.7-.34.26-.68.52-1.02.77-.31.24-.63.48-.94.72-.34.26-.68.52-1.02.78-.31.24-.62.48-.93.73-.34.26-.68.53-1.02.8-.31.24-.62.49-.93.73-.34.27-.67.53-1.01.8-.31.25-.62.49-.93.74-.33.27-.67.54-1,.8-.31.25-.62.51-.93.76-.32.26-.65.53-.97.79-.32.26-.63.52-.94.78-.32.26-.63.52-.95.79-.32.26-.63.52-.94.78-.31.26-.63.52-.94.78-.31.26-.63.53-.94.79-.31.26-.61.52-.91.77-.31.27-.63.53-.94.8-.3.26-.6.51-.89.76-.31.27-.63.54-.94.81-.29.25-.58.5-.87.75-.31.27-.62.54-.93.81-.28.25-.57.49-.85.74-.31.27-.63.55-.94.82-.27.24-.54.47-.8.71-.32.28-.63.56-.95.84-.26.23-.51.45-.76.68-.32.29-.64.57-.96.86-.24.21-.47.42-.71.63-.33.29-.65.58-.97.87-.23.2-.45.41-.67.61-.33.3-.65.59-.98.89-.2.18-.39.36-.59.54-.35.32-.69.63-1.03.94-.16.15-.32.29-.48.44-.36.34-.73.67-1.09,1-.13.12-.26.24-.39.36-.38.36-.77.71-1.14,1.06-.06.05-.11.1-.16.15-1.42,1.32-2.79,2.61-4.08,3.84-2.7-1.88-5.42-2.84-8.01-3.19-.03-8.22,1.1-86.3,53.72-88.93.2.19.39.37.58.56.09.09.19.18.28.27.28.27.53.54.77.79.73.83,1.48,1.76,2.27,2.76.62.79,1.25,1.63,1.9,2.52.65.88,1.31,1.81,1.98,2.77,6.1,8.73,13.01,20.34,18.25,29.48ZM193.95,50.38c0,.07,0,.14-.01.2-.03.61-.07,1.21-.1,1.82-.04.71-.09,1.41-.14,2.12-.06.91-.13,1.81-.21,2.71-.36,4.28-.86,8.39-1.56,11.97-.45-.42-.92-.77-1.39-1.06-2.03-1.24-4.69-2.8-7.85-4.54-.45-.25-.91-.5-1.38-.75-.36-.2-.74-.4-1.11-.6-.75-.4-1.53-.81-2.32-1.22-.4-.21-.8-.41-1.21-.62-.82-.42-1.66-.83-2.51-1.25-.43-.21-.86-.42-1.3-.63-1.31-.63-2.66-1.26-4.04-1.89.28-.45.67-1.05,1.14-1.77,4.54-7.05,17.08-26.1,24.19-33.2,0,0,.55,14.19-.19,28.71Z"/>
</svg>