<?xml version="1.0" encoding="UTF-8"?>
<svg id="Layer_1" xmlns="http://www.w3.org/2000/svg" xmlns:xlink="http://www.w3.org/1999/xlink" version="1.1" viewBox="0 0 395.02 291.41">
  <!-- Generator: Adobe Illustrator 30.2.1, SVG Export Plug-In . SVG Version: 2.1.1 Build 1)  -->
  <defs>
    <style>
      .st0 {
        fill: none;
      }

      .st1 {
        fill: #070f37;
      }

      .st2 {
        fill: #ff0051;
      }

      .st3 {
        clip-path: url(#clippath-1);
      }

      .st4 {
        clip-path: url(#clippath-2);
      }

      .st5 {
        opacity: .8;
      }

      .st6 {
        opacity: .4;
      }

      .st7 {
        clip-path: url(#clippath);
      }
    </style>
    <clipPath id="clippath">
      <rect class="st0" x="152.27" y="43.79" width="38.39" height="29.13"/>
    </clipPath>
    <clipPath id="clippath-1">
      <rect class="st0" x="204.4" y="43.81" width="38.35" height="29.31"/>
    </clipPath>
    <clipPath id="clippath-2">
      <rect class="st0" x="197.51" y="67.08" width="10.44" height="30.35"/>
    </clipPath>
  </defs>
  <g class="st6">
    <g class="st7">
      <path class="st1" d="M174.17,72.92c6.58,0,12.48-3.17,16.5-8.18-6.54-9.07-18.31-19.77-37.85-20.94-.35,1.68-.54,3.43-.54,5.23,0,13.19,9.81,23.89,21.9,23.89"/>
    </g>
  </g>
  <g class="st6">
    <g class="st3">
      <path class="st1" d="M220.85,73.12c12.09,0,21.9-10.7,21.9-23.89,0-1.31-.11-2.6-.3-3.85-.15-.81-.25-1.31-.3-1.57-19.55,1.27-31.29,12.09-37.76,21.17,4.02,4.98,9.89,8.13,16.46,8.13"/>
    </g>
  </g>
  <path class="st2" d="M197.51,67.07s-5.17.11-6.62,9.4c0,0-.25,5-2.47,4.71,0,0-1.9.2-1.19,1.39.71,1.19,5.37,6.41,5.39,6.84.03.43,4.85,7.24,4.88,8.01v-30.35Z"/>
  <g class="st5">
    <g class="st4">
      <path class="st2" d="M197.51,67.07s5.17.11,6.62,9.4c0,0,.25,5,2.47,4.71,0,0,1.9.2,1.19,1.39-.71,1.19-5.37,6.41-5.39,6.84-.03.43-4.85,7.24-4.88,8.01v-30.35Z"/>
    </g>
  </g>
  <path class="st1" d="M141.78,24.3c.46-.26.94-.54,1.45-.83h0c-.51.25-.99.53-1.44.83"/>
  <path class="st1" d="M261.22,36.84h0s.03-.01,0,0"/>
  <path class="st1" d="M281.23,114.05c-6.98-36.17-15.39-63.53-20.01-77.21-.01,0-.03.01,0,0-.16-.49-.32-.95-.48-1.4,6.98-6.82,6.09-16.57,6.09-16.57-3.15,1.58-6.66,2.17-10.06,2.23-.12-2.04-1.22-3.63-1.22-3.63-2.58,2.97-12.64.47-17.07-.83-11.12-5.19-25.14-10.38-37.84-11.13-1.05-.06-2.1-.1-3.14-.1s-2.09.04-3.14.1c-17.8,1.05-38.18,10.82-49.55,17.08-.3.22-.8.5-1.58.88-.51.29-.99.56-1.45.83-6.32,4.09-7.98,12.54-7.98,12.54-4.62,13.68-13.03,41.04-20.01,77.21-6.2,32.11,35.06,64.23,62.1,80.86-.85,5.51,3.1,8.89,3.1,8.89.63-3.36,3.99-4.69,3.99-4.69-7.58,11.86,4.83,19.08,4.83,19.08.71-5.4,9.45-11.06,15.04-14.17.09-.04.18-.08.26-.11.23-.12.47-.24.72-.36,1.11-.56,2.33-1.2,3.63-1.9,0,0,.01,0,.01,0,24.25-13.06,80.94-50.34,73.75-87.59M201,180.33c-1.08.51-2.24.76-3.4.76-.03,0-.06,0-.08,0s-.06,0-.08,0c-1.16,0-2.32-.25-3.4-.76-15.07-7.06-66.16-37.92-61.4-70.32.95-6.47,1.82-12.35,2.62-17.72l4.87-31.54c.02-.2.04-.39.06-.58.29-1.82.56-3.49.81-5.02,1.18-7.3,1.91-11.41,2.31-13.59.04-.25.09-.49.14-.73.11-.55.18-.93.22-1.15,1.74-2.01,3.61-3.87,5.57-5.56,19.75-18.04,44.5-18.55,48.1-18.59.04,0,.07,0,.1,0,.03,0,.06,0,.08,0,.03,0,.06,0,.08,0,.03,0,.07,0,.1,0,3.61.03,28.36.54,48.1,18.59,1.96,1.7,3.83,3.55,5.57,5.56.04.22.12.6.22,1.15.04.25.1.49.14.73.4,2.17,1.12,6.29,2.31,13.59.25,1.53.52,3.19.81,5.02.02.19.04.38.06.58l4.87,31.54c.8,5.37,1.68,11.25,2.63,17.72,4.76,32.4-46.33,63.26-61.4,70.32"/>
  <path class="st1" d="M144.81,22.6c-.55.3-1.08.6-1.58.88.78-.38,1.28-.66,1.58-.88"/>
  <path class="st1" d="M32.3,220.37c-.42,1.15-.82,2.32-1.26,3.48-5.71,15.08-11.43,30.16-17.15,45.25-.75,1.98-2.58,3.14-5.09,3.19-1.69.03-3.39-.03-5.09.02-.9.03-1.01-.2-.7-1.02,2.15-5.61,4.25-11.24,6.37-16.86,3.83-10.15,7.66-20.29,11.49-30.44.98-2.59,2.65-3.77,5.41-3.78,1.9,0,3.8.01,5.7.03.07,0,.14.06.32.14"/>
  <path class="st2" d="M52.11,242.05h-1.38v30.53h-10.2v-41.66c-.38-7.75,4.14-10.82,11.74-10.82,1.76,0,3.37.08,4.91.31v8.44h-2.69c-2.38,0-3.68,1-3.91,2.99v2.68h6.6v2.38c0,2.77-2.3,5.14-5.06,5.14"/>
  <path class="st2" d="M69.45,242.59h-10.21c1.23-7.52,6.52-11.2,15.88-11.2,11.2,0,16.88,3.68,17.1,11.2v13.81c0,11.2-6.75,16.18-17.72,16.95-9.74.77-16.49-3.76-16.49-12.74.23-9.74,7.29-12.35,17.57-13.35,4.38-.54,6.6-1.84,6.6-4.06-.23-2.3-2.38-3.45-6.6-3.45-3.6,0-5.6.92-6.14,2.84M82.34,255.94v-3.76c-2.38,1-5.14,1.84-8.13,2.45-4.07.77-6.14,2.69-6.14,5.68.23,3.22,1.92,4.76,5.14,4.76,5.68,0,9.13-3.37,9.13-9.13"/>
  <path class="st2" d="M113.79,265.22c4.29,0,6.44-1.23,6.44-3.84,0-2.07-3.53-3.76-10.51-4.99-8.97-1.61-13.58-5.6-13.65-11.97,0-8.75,6.9-12.89,16.19-13.04,5.22,0,9.36,1.15,12.42,3.45,2.99,2.38,4.61,5.68,4.83,9.9h-6.44c-2.38-.08-3.91-.92-4.53-2.53-.69-1.77-2.76-2.77-6.14-2.77-3.99,0-5.98,1.07-5.98,3.15s2.61,3.68,7.9,4.68c6.91,1.38,11.43,3.15,13.66,5.22,1.92,1.99,2.84,4.45,2.84,7.21,0,9.97-7.83,13.65-18.56,13.65-5.68,0-9.97-1.22-12.74-3.6-3.07-2.3-4.6-5.83-4.6-10.51h10.43c.23,4.45,3.45,5.99,8.44,5.99"/>
  <path class="st2" d="M145.47,239.29h-1.07v22.48c0,1.69,1,2.61,2.99,2.61h3.15v7.75c-3.3.31-6.91.31-10.74-.08-3.84-.38-5.68-2.76-5.6-7.29v-44.34h5.29c2.69,0,4.91,2.45,4.91,5.14v6.44h6.14v2.22c0,2.92-2.23,5.06-5.06,5.06"/>
  <path class="st1" d="M172.32,273.5c-12.27,0-18.56-7.06-18.87-21.02,0-13.88,6.21-20.87,18.72-21.09,9.82,0,15.65,4.37,17.42,13.19h-11.13c-1.22-2.76-3.37-4.22-6.59-4.22-5.37,0-8.06,4.07-8.06,12.12s2.84,12.12,8.52,12.05c2.38,0,4.45-1,6.14-2.92,1-1,2.15-1.46,3.45-1.46h7.67c-1.84,8.28-7.83,13.58-17.26,13.35"/>
  <path class="st1" d="M204.39,242.59h-10.2c1.23-7.52,6.52-11.2,15.88-11.2,11.2,0,16.88,3.68,17.11,11.2v13.81c0,11.2-6.75,16.18-17.72,16.95-9.74.77-16.49-3.76-16.49-12.74.23-9.74,7.29-12.35,17.57-13.35,4.38-.54,6.6-1.84,6.6-4.06-.23-2.3-2.38-3.45-6.6-3.45-3.6,0-5.6.92-6.14,2.84M217.28,255.94v-3.76c-2.38,1-5.14,1.84-8.13,2.45-4.07.77-6.14,2.69-6.14,5.68.23,3.22,1.92,4.76,5.14,4.76,5.68,0,9.13-3.37,9.13-9.13"/>
  <path class="st1" d="M241.21,283.4c0,3.37-1.69,5.06-5.06,5.06h-5.14v-38.81c.54-12.12,6.83-18.11,19.03-18.11s18.87,6.82,18.87,20.48-5.37,20.94-16.19,21.33c-5.06,0-8.9-2.07-11.51-6.29v16.34ZM249.88,264.22c5.52,0,8.36-3.91,8.59-11.74,0-8.21-2.92-12.27-8.75-12.27s-8.59,4.06-8.52,12.27c.31,7.82,3.15,11.74,8.67,11.74"/>
  <path class="st1" d="M283.87,239.29h-1.07v22.48c0,1.69,1,2.61,2.99,2.61h3.15v7.75c-3.3.31-6.91.31-10.74-.08-3.84-.38-5.68-2.76-5.6-7.29v-44.34h5.29c2.68,0,4.91,2.45,4.91,5.14v6.44h6.14v2.22c0,2.92-2.23,5.06-5.06,5.06"/>
  <path class="st1" d="M326.29,256.4c0,6.98-1.76,11.59-5.37,13.81-3.61,2.07-7.59,3.15-11.97,3.15s-7.98-1.15-11.5-3.45c-3.53-2.23-5.3-6.67-5.3-13.5v-24.39h10.21v26.47c0,4.53,2.3,6.75,6.9,6.75s6.91-2.23,6.91-6.75v-21.4c-.08-3.38,1.53-5.06,4.91-5.06h5.21v24.39Z"/>
  <path class="st1" d="M329.66,251.64c.31-13.12,7.29-19.64,20.87-19.64h1.46v10.59h-3.45c-5.68,0-8.52,2.99-8.52,8.9v21.1h-10.36v-20.94Z"/>
  <path class="st1" d="M373.78,273.51c-12.27-.39-18.41-7.52-18.41-21.33s6.22-20.71,18.57-20.79c12.89,0,18.95,7.9,18.18,23.78h-26.24c.38,6.22,3.07,9.36,8.06,9.36,2.38,0,4.6-1,6.6-2.92.92-1,2.07-1.46,3.45-1.46h7.52c-2.23,8.59-7.75,13.35-17.72,13.35M366.03,247.88h15.27c-.62-5.37-3.15-8.13-7.52-8.13s-6.98,2.76-7.75,8.13"/>
</svg>