<?xml version="1.0" encoding="UTF-8"?>
<svg id="Layer_1" xmlns="http://www.w3.org/2000/svg" xmlns:xlink="http://www.w3.org/1999/xlink" version="1.1" viewBox="0 0 211.8 211.52">
  <!-- Generator: Adobe Illustrator 30.2.1, SVG Export Plug-In . SVG Version: 2.1.1 Build 1)  -->
  <defs>
    <style>
      .st0 {
        fill: none;
      }

      .st1 {
        clip-path: url(#clippath-1);
      }

      .st2 {
        fill: #003c57;
      }

      .st3 {
        opacity: .4;
      }

      .st4 {
        clip-path: url(#clippath);
      }
    </style>
    <clipPath id="clippath">
      <rect class="st0" x="51.22" y="40.04" width="46.29" height="35.12"/>
    </clipPath>
    <clipPath id="clippath-1">
      <rect class="st0" x="114.07" y="40.06" width="46.24" height="35.33"/>
    </clipPath>
  </defs>
  <g class="st3">
    <g class="st4">
      <path class="st2" d="M77.62,75.16c7.93,0,15.05-3.82,19.89-9.86-7.89-10.94-22.08-23.84-45.64-25.25-.42,2.03-.65,4.13-.65,6.31,0,15.91,11.82,28.81,26.4,28.81"/>
    </g>
  </g>
  <g class="st3">
    <g class="st1">
      <path class="st2" d="M133.91,75.4c14.58,0,26.4-12.9,26.4-28.81,0-1.58-.12-3.13-.36-4.64-.18-.98-.3-1.58-.36-1.89-23.58,1.53-37.72,14.58-45.53,25.53,4.84,6.01,11.93,9.81,19.84,9.81"/>
    </g>
  </g>
  <path class="st2" d="M195.19,9.37c.8-2.46-1.29-1.53-1.61-1.3-13.91,10.31-23.1,14.85-31.04,17.16-9.32-5.56-34.9-19.5-56.8-19.49-22.62,0-47.55,13.8-56.76,19.41-7.87-2.33-17.02-6.88-30.75-17.07-.32-.24-2.41-1.17-1.61,1.3,1.29,3.97,12.22,21.06,25.22,27.84-4.63,13.7-13.05,41.11-20.05,77.34-7.59,39.34,55.93,78.71,77.53,89.65.25.12.49.25.72.36,1.02.47,3.09,1.22,5.7,1.23,2.62,0,4.68-.76,5.7-1.23.23-.12.48-.24.72-.36,21.6-10.94,85.12-50.31,77.53-89.65-6.97-36.11-15.36-63.45-20-77.2,13.13-6.69,24.2-23.98,25.5-27.99M105.73,14.34c2.63.02,21.29.65,39.77,13.83-24.01,3.59-35.29,17.51-38.56,22.37-.5.74-1.58.74-2.08,0-3.28-4.88-14.64-18.88-38.84-22.41,18.46-13.15,37.08-13.78,39.71-13.8M40.82,110.51c8.11-55.22,10.68-68.6,11.05-70.47,23.56,1.41,37.75,14.31,45.64,25.25,3.68,5.11,5.99,9.79,7.23,12.67.43,1.02,1.88,1.02,2.31,0,1.22-2.83,3.46-7.38,7.02-12.37,7.81-10.95,21.95-24,45.53-25.53.05.22.12.6.22,1.15.05.25.1.49.14.74.48,2.63,1.44,8.1,3.12,18.63,1.38,12.87.46,50.29-54.3,60.6-29.28,5.52-45.65,15.25-54.73,23.81-9-10.51-15-22.4-13.22-34.5M170.65,110.51c4.77,32.46-46.41,63.37-61.51,70.44-1.08.51-2.25.76-3.41.76s-2.32-.25-3.41-.76c-5.22-2.45-14.75-7.74-24.79-14.96,5.96-9.86,18.11-22.09,42.8-29.62,31.56-9.63,43.4-28.58,47.68-43.61.8,5.37,1.67,11.27,2.63,17.75"/>
</svg>