<?xml version="1.0" encoding="UTF-8"?>
<svg id="Capa_1" data-name="Capa 1" xmlns="http://www.w3.org/2000/svg" xmlns:xlink="http://www.w3.org/1999/xlink" viewBox="0 0 397.74 121">
  <defs>
    <style>
      .cls-1 {
        fill: url(#degradado_bluetab_RGB);
      }
    </style>
    <linearGradient id="degradado_bluetab_RGB" data-name="degradado bluetab RGB" x1="0" y1="39.48" x2="397.74" y2="39.48" gradientUnits="userSpaceOnUse">
      <stop offset=".22" stop-color="#212492"/>
      <stop offset=".33" stop-color="#24218e"/>
      <stop offset=".43" stop-color="#2f1a85"/>
      <stop offset=".44" stop-color="#311984"/>
      <stop offset=".49" stop-color="#48127e"/>
      <stop offset=".54" stop-color="#5b0e7b"/>
      <stop offset=".54" stop-color="#5b0e7a"/>
      <stop offset=".59" stop-color="#8d1e5c"/>
      <stop offset=".64" stop-color="#b42a45"/>
      <stop offset=".69" stop-color="#d03334"/>
      <stop offset=".73" stop-color="#e1392a"/>
      <stop offset=".75" stop-color="#e83b27"/>
      <stop offset=".79" stop-color="#e6401f"/>
      <stop offset=".91" stop-color="#e14d0c"/>
      <stop offset="1" stop-color="#e05206"/>
    </linearGradient>
  </defs>
  <g id="bluetab_an_IBM_Company">
    <path id="an_IBM_Company" data-name="an IBM Company" d="M66.41,115.49c-1.63,0-2.29-.99-2.45-2.32h-.14c-.61,1.74-2.12,2.65-4.11,2.65-3,0-4.77-1.65-4.77-4.3s1.93-4.16,6.06-4.16h2.81v-1.41c0-2.01-1.1-3.11-3.36-3.11-1.71,0-2.84.83-3.61,2.12l-1.32-1.24c.77-1.52,2.48-2.78,5.04-2.78,3.42,0,5.46,1.79,5.46,4.8v7.83h1.63v1.93h-1.24ZM63.82,111.35v-2.34h-2.92c-2.51,0-3.64.77-3.64,2.15v.58c0,1.41,1.1,2.21,2.81,2.21,2.18,0,3.75-1.13,3.75-2.59ZM70.93,115.49v-14.22h2.2v2.32h.11c.69-1.6,1.9-2.65,4.02-2.65,2.92,0,4.77,1.98,4.77,5.43v9.12h-2.2v-8.74c0-2.54-1.1-3.83-3.22-3.83-1.76,0-3.47.88-3.47,2.7v9.87h-2.2ZM91.57,115.49v-1.93h2.7v-15.38h-2.7v-1.93h7.72v1.93h-2.7v15.38h2.7v1.93h-7.72ZM103.64,96.25h7.91c3.17,0,5.13,1.96,5.13,4.96s-1.85,3.89-3.11,4.08v.17c1.38.08,3.78,1.27,3.78,4.46s-2.12,5.57-4.96,5.57h-8.74v-19.24ZM105.96,104.57h5.32c1.82,0,2.92-.96,2.92-2.67v-.94c0-1.71-1.1-2.67-2.92-2.67h-5.32v6.28ZM105.96,113.45h5.71c1.98,0,3.2-1.05,3.2-2.98v-.94c0-1.93-1.21-2.98-3.2-2.98h-5.71v6.89ZM121.78,96.25h3.09l5.51,10.36h.14l5.54-10.36h2.98v19.24h-2.26v-16.21h-.14l-1.63,3.22-4.6,8.38-4.6-8.38-1.63-3.22h-.14v16.21h-2.26v-19.24ZM148.87,105.98c0-6.42,2.89-10.06,7.74-10.06,3.2,0,5.4,1.54,6.61,4.22l-1.87,1.13c-.77-1.98-2.37-3.28-4.74-3.28-3.31,0-5.26,2.62-5.26,6.56v2.87c0,3.94,1.96,6.34,5.26,6.34,2.45,0,4.13-1.38,4.91-3.47l1.85,1.16c-1.21,2.7-3.56,4.38-6.75,4.38-4.85,0-7.74-3.42-7.74-9.84ZM165.82,108.38c0-4.52,2.62-7.44,6.42-7.44s6.42,2.92,6.42,7.44-2.62,7.44-6.42,7.44-6.42-2.92-6.42-7.44ZM176.3,109.4v-2.04c0-3-1.68-4.46-4.05-4.46s-4.05,1.46-4.05,4.46v2.04c0,3,1.68,4.46,4.05,4.46s4.05-1.46,4.05-4.46ZM182.44,115.49v-14.22h2.2v2.32h.11c.63-1.46,1.63-2.65,3.83-2.65,1.87,0,3.58.85,4.35,2.89h.06c.52-1.54,1.9-2.89,4.33-2.89,2.89,0,4.63,1.98,4.63,5.43v9.12h-2.2v-8.74c0-2.51-.96-3.83-3.11-3.83-1.74,0-3.33.88-3.33,2.7v9.87h-2.2v-8.74c0-2.54-.96-3.83-3.06-3.83-1.74,0-3.39.88-3.39,2.7v9.87h-2.2ZM206.64,101.27h2.2v2.32h.11c.74-1.79,2.2-2.65,4.16-2.65,3.56,0,5.79,2.89,5.79,7.44s-2.23,7.44-5.79,7.44c-1.96,0-3.31-.88-4.16-2.65h-.11v7.83h-2.2v-19.73ZM216.54,109.59v-2.43c0-2.54-1.54-4.24-4.02-4.24-2.01,0-3.67,1.16-3.67,2.73v5.29c0,1.85,1.65,2.89,3.67,2.89,2.48,0,4.02-1.71,4.02-4.24ZM233.1,115.49c-1.63,0-2.29-.99-2.45-2.32h-.14c-.61,1.74-2.12,2.65-4.11,2.65-3,0-4.77-1.65-4.77-4.3s1.93-4.16,6.06-4.16h2.81v-1.41c0-2.01-1.1-3.11-3.36-3.11-1.71,0-2.84.83-3.61,2.12l-1.32-1.24c.77-1.52,2.48-2.78,5.04-2.78,3.42,0,5.46,1.79,5.46,4.8v7.83h1.63v1.93h-1.24ZM230.51,111.35v-2.34h-2.92c-2.51,0-3.64.77-3.64,2.15v.58c0,1.41,1.1,2.21,2.81,2.21,2.18,0,3.75-1.13,3.75-2.59ZM237.62,115.49v-14.22h2.2v2.32h.11c.69-1.6,1.9-2.65,4.02-2.65,2.92,0,4.77,1.98,4.77,5.43v9.12h-2.2v-8.74c0-2.54-1.1-3.83-3.22-3.83-1.76,0-3.47.88-3.47,2.7v9.87h-2.2ZM261.96,101.27h2.18l-6.37,17.53c-.63,1.71-1.21,2.21-3.31,2.21h-1.13v-1.93h2.23l1.08-3.03-5.32-14.77h2.2l3.42,9.67.66,2.32h.14l.77-2.32,3.45-9.67Z"/>
    <path id="_bluetab" data-name="/bluetab" class="cls-1" d="M174.08,20.06v32.16c-.01,4.12-.64,5.97-1.31,7.51-1.71,3.74-4.89,5.91-9.24,6.24-4.35-.34-7.56-2.35-9.26-6.1-.67-1.54-1.3-3.53-1.3-7.51v-24.82s0-.03,0-.04c0-4.11-3.33-7.45-7.44-7.45h-7.65v29.11c0,.42,0,.84.01,1.25.09,4.18.63,7.84,1.58,11.06,1.02,3.43,2.5,6.35,4.52,8.68.56.64,1.15,1.25,1.78,1.81,5.15,4.57,11.07,6.88,17.76,6.99,6.69-.1,12.62-2.42,17.76-6.99.63-.56,1.23-1.16,1.78-1.81,2.01-2.33,3.5-5.25,4.52-8.68.95-3.21,1.5-6.88,1.58-11.06,0-.41.01-.83.01-1.25v-21.67c0-4.11-3.33-7.45-7.44-7.45h-7.66ZM303.83,65.25c-1.35-1.06-2.02-2.79-2.02-5.18,0-2.68,1.1-4.66,3.3-5.94,1.3-.75,3.44-1.39,6.43-1.91l3.18-.59c1.59-.29,2.84-.61,3.76-.96.91-.34,1.82-.79,2.71-1.35v5.2c-.1,4.68-1.44,7.9-4.01,9.67-2.57,1.77-5.39,2.65-8.45,2.65-1.93,0-3.56-.53-4.91-1.6M291.7,26.23c-2.48,3.2-3.88,7.3-4.2,12.28h14.37c.35-2.19,1.06-3.94,2.12-5.22,1.48-1.74,4.01-2.61,7.57-2.61,3.18,0,5.59.44,7.23,1.33,1.64.89,2.46,2.5,2.46,4.83,0,1.92-1.07,3.33-3.21,4.23-1.19.52-3.17.96-5.95,1.31l-5.11.63c-19.33,2.88-19.97,14.29-19.97,18.86,0,12.75,15.6,17.08,23.72,17.08,6.25,0,11.59-1.9,15.34-4.04,5.83-3.95,9.73-10.54,9.95-18.07v-20.42c0-6.86-2.43-11.53-7.29-14-4.86-2.47-10.42-3.71-16.69-3.71-9.62,0-16.41,2.51-20.36,7.52M213.97,34.08c2.1-2.17,5.07-3.25,8.89-3.25,3.51,0,6.46,1.02,8.83,3.07,2.37,2.05,3.7,5.04,3.97,9h-25.65c.54-3.71,1.86-6.64,3.97-8.81M202.49,26.44c-5.23,5.26-7.84,12.83-7.84,22.69,0,10.53,2.9,18.13,8.69,22.8,5.79,4.67,12.48,7.01,20.06,7.01,9.18,0,16.32-2.77,21.43-8.31,3.28-3.48,5.12-6.91,5.52-10.29h-10.83c-.27,0-.53.01-.78.01-2.08,0-3.94.93-5.18,2.41,0,0-.02.02-.02.02-.46.56-.94,1.06-1.45,1.48-2.12,1.74-4.88,2.61-8.27,2.61-3.2,0-5.94-.71-8.21-2.14-3.74-2.3-5.73-6.3-5.96-12.02h41.48c.07-4.92-.09-8.69-.49-11.3-.69-4.47-2.2-8.39-4.54-11.77-2.59-3.84-5.87-6.65-9.84-8.42-3.97-1.78-8.44-2.67-13.39-2.67-8.35,0-15.13,2.63-20.36,7.9M257.03,4.7v61.55c0,3.55.83,6.18,2.51,7.89,2.58,2.68,7.38,3.9,14.42,3.66l7.05-.26v-11.13c-.49.04-.98.06-1.49.08-.51.02-.99.03-1.44.03-3.03,0-4.84-.29-5.43-.86-.59-.57-.89-2.03-.89-4.36v-30.09h9.25v-3.18c0-3.99-3.14-7.23-7.08-7.43h-2.17v-8.45c0-4.1-3.34-7.43-7.44-7.43h-7.29ZM73.4,61.83c-2.27-3.35-3.4-7.58-3.4-12.69,0-4.34.55-7.88,1.65-10.61,2.12-5.14,6.02-7.71,11.69-7.71s9.44,2.63,11.52,7.88c1.1,2.77,1.65,6.27,1.65,10.5,0,5.29-1.12,9.56-3.35,12.8-2.23,3.25-5.36,4.87-9.38,4.87-4.65,0-8.1-1.68-10.37-5.04M55.52.11v48.12c0,.32-.03.63-.03.95,0,10.53,2.9,18.13,8.69,22.8,5.66,4.57,11.35,6.88,18.72,6.99,7.37-.1,13.89-2.42,19.56-6.99,5.79-4.67,8.69-12.27,8.69-22.8,0-9.87-2.61-17.43-7.84-22.69-5.23-5.26-12.02-7.9-20.37-7.9h-.07c-4.86,0-10.21,2.41-12.45,6.02V7.38c-.09-4.03-3.38-7.27-7.44-7.27h-7.45ZM359.99,61.83c-2.27-3.35-3.4-7.58-3.4-12.69,0-4.34.55-7.88,1.65-10.61,2.12-5.14,6.02-7.71,11.69-7.71s9.44,2.63,11.52,7.88c1.1,2.77,1.65,6.27,1.65,10.5,0,5.29-1.12,9.56-3.35,12.8-2.23,3.25-5.36,4.87-9.38,4.87-4.65,0-8.11-1.68-10.37-5.04M342.12.11v48.12c0,.32-.03.63-.03.95,0,10.53,2.9,18.13,8.69,22.8,5.66,4.57,11.35,6.88,18.72,6.99,7.37-.1,13.89-2.42,19.56-6.99,5.79-4.67,8.69-12.27,8.69-22.8,0-9.87-2.61-17.43-7.84-22.69-5.23-5.26-12.02-7.9-20.36-7.9h-.07c-4.86,0-10.21,2.41-12.45,6.02V7.38c-.09-4.03-3.38-7.27-7.44-7.27h-7.45ZM34.25.06c-.05,0,0,0-.05,0-3.16,0-5.95,1.99-7.03,4.76L0,77.01h9.48c.05,0,0,0,.05,0,2.77,0,5.26-1.53,6.56-3.78L43.72.06h-9.48ZM117.05,0v77.01h14.89V7.55c0-4.11-3.33-7.44-7.45-7.44-.35,0-.68-.04-.99-.11h-6.45Z"/>
  </g>
</svg>